<svg width="32" height="32" viewBox="0 0 36 36" fill="none" xmlns="http://www.w3.org/2000/svg">
  <circle cx="18" cy="18" r="18" fill="black"/>
  <defs>
    <linearGradient id="logoGrad" x1="0%" y1="0%" x2="100%" y2="0%">
      <stop offset="0%" stop-color="#00ffaa" />
      <stop offset="50%" stop-color="#00d4ff" />
      <stop offset="100%" stop-color="#0066ff" />
    </linearGradient>
  </defs>
  <path d="M6 18C6 14 8 12 12 12C14 12 16 13 18 14C20 15 22 16 24 16C26 16 28 15 30 14C32 13 34 14 34 18C34 22 32 24 30 24C28 24 26 23 24 22C22 21 20 20 18 20C16 20 14 21 12 22C10 23 8 22 6 18Z" fill="url(#logoGrad)"/>
</svg>
